<svg xmlns="http://www.w3.org/2000/svg" xmlns:xlink="http://www.w3.org/1999/xlink" viewBox="0 0 48 48" width="48px" height="48px"><defs><radialGradient id="bMkc~~cRYJ57WwHeeXOtEb" cx="24.125" cy="12.217" r="22.221" gradientTransform="matrix(1 0 0 .263 0 9.003)" gradientUnits="userSpaceOnUse"><stop offset=".072" stop-color="#a6afb0"/><stop offset=".388" stop-color="#a4adae"/><stop offset=".568" stop-color="#9ca4a5"/><stop offset=".713" stop-color="#8e9798"/><stop offset=".84" stop-color="#7a8384"/><stop offset=".954" stop-color="#61696a"/><stop offset="1" stop-color="#555d5e"/></radialGradient><radialGradient id="bMkc~~cRYJ57WwHeeXOtEa" cx="24" cy="3.185" r="17.698" gradientUnits="userSpaceOnUse"><stop offset="0" stop-color="#a1b6b8"/><stop offset=".851" stop-color="#73878a"/><stop offset="1" stop-color="#596567"/></radialGradient><radialGradient id="bMkc~~cRYJ57WwHeeXOtEe" cx="23.916" cy="38.212" r="14.839" gradientUnits="userSpaceOnUse"><stop offset="0" stop-color="#bacecf"/><stop offset=".851" stop-color="#788d91"/><stop offset="1" stop-color="#596567"/></radialGradient><radialGradient id="bMkc~~cRYJ57WwHeeXOtEf" cx="24" cy="12.625" r="28.522" gradientTransform="matrix(1 0 0 .239 0 9.61)" gradientUnits="userSpaceOnUse"><stop offset=".491" stop-color="#354242"/><stop offset="1" stop-color="#7e8687" stop-opacity="0"/></radialGradient><radialGradient id="bMkc~~cRYJ57WwHeeXOtEg" cx="23.958" cy="11" r="18.147" gradientTransform="matrix(1.063 0 0 1 -1.5 0)" xlink:href="#bMkc~~cRYJ57WwHeeXOtEa"/><radialGradient id="bMkc~~cRYJ57WwHeeXOtEh" cx="23.843" cy="39.264" r="14.839" gradientTransform="matrix(1 0 0 .439 0 22.029)" gradientUnits="userSpaceOnUse"><stop offset="0" stop-color="#bacecf" stop-opacity="0"/><stop offset=".288" stop-color="#a5b7b8" stop-opacity=".141"/><stop offset=".673" stop-color="#6a7777" stop-opacity=".536"/><stop offset="1" stop-color="#252b2b"/></radialGradient><linearGradient id="bMkc~~cRYJ57WwHeeXOtEc" x1="8" x2="40" y1="27.5" y2="27.5" gradientUnits="userSpaceOnUse"><stop offset="0" stop-color="#4a5152"/><stop offset=".096" stop-color="#6c7475"/><stop offset=".215" stop-color="#909a9b"/><stop offset=".327" stop-color="#abb5b6"/><stop offset=".425" stop-color="#bac5c6"/><stop offset=".5" stop-color="#c0cbcc"/><stop offset=".575" stop-color="#bac5c6"/><stop offset=".673" stop-color="#abb5b6"/><stop offset=".785" stop-color="#909a9b"/><stop offset=".904" stop-color="#6c7475"/><stop offset="1" stop-color="#4a5152"/></linearGradient><linearGradient id="bMkc~~cRYJ57WwHeeXOtEd" x1="24" x2="24" y1="12" y2="43" gradientUnits="userSpaceOnUse"><stop offset=".552" stop-color="#c0cbcc" stop-opacity="0"/><stop offset=".623" stop-color="#bbc6c7" stop-opacity=".052"/><stop offset=".716" stop-color="#aeb9ba" stop-opacity=".198"/><stop offset=".821" stop-color="#98a2a4" stop-opacity=".44"/><stop offset=".934" stop-color="#7a8385" stop-opacity=".774"/><stop offset="1" stop-color="#666e70"/></linearGradient></defs><g data-name="wastebasket"><path fill="url(#bMkc~~cRYJ57WwHeeXOtEb)" d="M40,9.3H38a4.889,4.889,0,0,1-2,3.42c-1.21-.57-2.46-1.06-3.69-1.5C33.97,9.76,35,8.16,35,6.3H33c0,1.46-1.14,2.83-2.9,4.15-.32-.11-.63-.21-.93-.32-.95-.31-1.88-.62-2.76-.94C28,8.19,29,6.98,29,5.3H27c0,1.16-1.21,2.08-3,2.92-1.79-.84-3-1.76-3-2.92H19c0,1.68,1,2.89,2.59,3.89-.88.32-1.81.63-2.76.94-.3.11-.61.21-.93.32C16.14,9.13,15,7.76,15,6.3H13c0,1.86,1.03,3.46,2.69,4.92-1.23.44-2.48.93-3.69,1.5A4.889,4.889,0,0,1,10,9.3H8a5.463,5.463,0,0,0,.95,3H8.64c.12.11.25.21.38.32a1.77,1.77,0,0,1-.01-.23,4.955,4.955,0,0,0,.34.46,18.888,18.888,0,0,0,6.67,2.63c-.8-.45-1.56-.92-2.24-1.38,1.24-.52,2.52-.99,3.81-1.43a41.744,41.744,0,0,0,4.15,2.4c-.22.11-.45.22-.67.33-.47.22-.94.45-1.41.67,1.32.14,2.71.22,4.14.23a1.865,1.865,0,0,1,.2-.1,1.865,1.865,0,0,1,.2.1c1.43-.01,2.82-.09,4.14-.23-.47-.22-.94-.45-1.41-.67-.22-.11-.45-.22-.67-.33a41.744,41.744,0,0,0,4.15-2.4c1.29.44,2.57.91,3.81,1.43-.68.46-1.44.93-2.24,1.38a18.888,18.888,0,0,0,6.67-2.63,4.955,4.955,0,0,0,.34-.46,1.77,1.77,0,0,1-.01.23c.13-.11.26-.21.38-.32h-.31A5.463,5.463,0,0,0,40,9.3ZM24,13.97c-1.41-.7-2.76-1.4-3.97-2.13,1.41-.47,2.77-.94,3.97-1.44,1.2.5,2.56.97,3.97,1.44C26.76,12.57,25.41,13.27,24,13.97Z"/><path fill="url(#bMkc~~cRYJ57WwHeeXOtEa)" d="M40.5,9a7.645,7.645,0,0,1-.82,2C38.2,8.72,31.742,7,24,7S9.8,8.72,8.32,11A7.645,7.645,0,0,1,7.5,9c0-2.76,7.664-4.5,16.5-4.5S40.5,6.24,40.5,9Z"/><path fill="#606a6b" d="M24,32c-6.63,0-12.49,2.28-12,5,.3,1.69.36,2,.36,2h.374c1.878,2,5.044,3,11.266,3s9.388-1,11.266-3h.374s.06-.31.36-2C36.49,34.28,30.63,32,24,32Z"/><path fill="url(#bMkc~~cRYJ57WwHeeXOtEc)" d="M40,12h-.64l-.057.048L39,12l-.3,1.859c-.26-.162-.527-.316-.8-.469a8.241,8.241,0,0,0,.74-.84,18.888,18.888,0,0,1-6.67,2.63c-.73.42-1.51.84-2.3,1.25-.44-.22-.89-.44-1.34-.66-1.32.14-2.71.22-4.14.23.61.3,1.24.6,1.87.9.46.22.91.44,1.37.66-.55.28-1.11.55-1.66.82-.59.29-1.19.58-1.78.88-.59-.3-1.19-.59-1.78-.88-.55-.27-1.11-.54-1.66-.82.46-.22.91-.44,1.37-.66.63-.3,1.26-.6,1.87-.9-1.43-.01-2.82-.09-4.14-.23-.45.22-.9.44-1.34.66-.79-.41-1.57-.83-2.3-1.25a18.888,18.888,0,0,1-6.67-2.63,8.241,8.241,0,0,0,.74.84c-.268.153-.535.307-.795.469L9,12l-.3.048L8.64,12H8l.025.156-.016,0,3.95,24.615h0L12,37l.239,1.02.772.11a6.046,6.046,0,0,1,1.139-3.47c.99.56,2.02,1.08,3.06,1.58A6.676,6.676,0,0,0,15,41h2a5.317,5.317,0,0,1,2.15-3.84c.97.46,1.94.92,2.86,1.38C20.2,39.8,19,41.21,19,43h2c0-1.19,1.24-2.3,3-3.37,1.76,1.07,3,2.18,3,3.37h2c0-1.79-1.2-3.2-3.01-4.46.92-.46,1.89-.92,2.86-1.38A5.317,5.317,0,0,1,31,41h2a6.676,6.676,0,0,0-2.21-4.76c1.04-.5,2.07-1.02,3.06-1.58a6.1,6.1,0,0,1,1.074,2.759l-.219,1.364.988.158,4.3-26.783-.016,0ZM36.11,27.08c.192-.144.361-.307.546-.457l-.147.918C36.377,27.386,36.248,27.231,36.11,27.08Zm-24.619.461-.147-.918c.185.15.354.313.546.457C11.752,27.231,11.623,27.386,11.491,27.541Zm-.521-3.9a11.032,11.032,0,0,1,2.04-1.87c.94.68,1.95,1.32,3,1.93a27.8,27.8,0,0,0-2.65,2A19.366,19.366,0,0,1,10.97,23.64Zm7,1.16c1.24.67,2.52,1.32,3.81,1.96-1.24.63-2.43,1.27-3.54,1.94-1.1-.6-2.17-1.21-3.18-1.85A29.23,29.23,0,0,1,17.97,24.8ZM24,27.87c1.27.64,2.51,1.28,3.67,1.93-.45.23-.89.46-1.34.69-.79.41-1.57.81-2.33,1.21-.76-.4-1.54-.8-2.33-1.21-.45-.23-.89-.46-1.34-.69C21.49,29.15,22.73,28.51,24,27.87Zm2.22-1.11c1.29-.64,2.57-1.29,3.81-1.96a29.23,29.23,0,0,1,2.91,2.05c-1.01.64-2.08,1.25-3.18,1.85C28.65,28.03,27.46,27.39,26.22,26.76Zm5.77-3.06c1.05-.61,2.06-1.25,3-1.93a11.032,11.032,0,0,1,2.04,1.87,19.366,19.366,0,0,1-2.39,2.06A27.8,27.8,0,0,0,31.99,23.7Zm5.527-2.437c-.288-.263-.6-.52-.917-.773.439-.379.845-.773,1.23-1.178Zm-1.2-6.493c.58.3,1.14.63,1.67.97a12.783,12.783,0,0,1-3.09,3.55c-.93-.6-1.95-1.18-3.03-1.75A34.611,34.611,0,0,0,36.32,14.77Zm-9.66,5.41c1.04-.51,2.05-1.01,3.03-1.51,1.24.63,2.42,1.26,3.49,1.91-.97.66-2.01,1.3-3.11,1.91-1.23-.73-2.52-1.43-3.83-2.1ZM24,21.49c1.38.69,2.72,1.39,4.01,2.12-1.1.57-2.22,1.13-3.33,1.68-.23.12-.45.23-.68.34-.23-.11-.45-.22-.68-.34-1.11-.55-2.23-1.11-3.33-1.68C21.28,22.88,22.62,22.18,24,21.49Zm-2.66-1.31.42.21c-1.31.67-2.6,1.37-3.83,2.1-1.1-.61-2.14-1.25-3.11-1.91,1.07-.65,2.25-1.28,3.49-1.91C19.29,19.17,20.3,19.67,21.34,20.18Zm-9.66-5.41a34.611,34.611,0,0,0,4.45,2.77c-1.08.57-2.1,1.15-3.03,1.75a12.783,12.783,0,0,1-3.09-3.55C10.54,15.4,11.1,15.07,11.68,14.77Zm-.28,5.72c-.322.253-.629.51-.916.773l-.313-1.951A17.008,17.008,0,0,0,11.4,20.49Zm2.33,11.58a13.492,13.492,0,0,1-1.723-1.316l-.073-.453A10.84,10.84,0,0,1,13.54,28.23c.89.59,1.83,1.16,2.79,1.69A18.246,18.246,0,0,0,13.73,32.07Zm5.14,2.75c-1.16-.55-2.3-1.11-3.36-1.69a20.209,20.209,0,0,1,2.81-2.12c.81.43,1.63.85,2.44,1.26.38.2.76.39,1.13.59A28.651,28.651,0,0,0,18.87,34.82ZM24,37.33c-.96-.53-2-1.03-3.07-1.54.93-.62,1.97-1.22,3.07-1.82,1.1.6,2.14,1.2,3.07,1.82C26,36.3,24.96,36.8,24,37.33Zm5.13-2.51a28.651,28.651,0,0,0-3.02-1.96c.37-.2.75-.39,1.13-.59.81-.41,1.63-.83,2.44-1.26a20.209,20.209,0,0,1,2.81,2.12C31.43,33.71,30.29,34.27,29.13,34.82Zm5.14-2.75a18.246,18.246,0,0,0-2.6-2.15c.96-.53,1.9-1.1,2.79-1.69A10.84,10.84,0,0,1,36.066,30.3l-.072.453A13.576,13.576,0,0,1,34.27,32.07Z"/><path fill="url(#bMkc~~cRYJ57WwHeeXOtEd)" d="M40,12h-.64l-.057.048L39,12l-.3,1.859c-.26-.162-.527-.316-.8-.469a8.241,8.241,0,0,0,.74-.84,18.888,18.888,0,0,1-6.67,2.63c-.73.42-1.51.84-2.3,1.25-.44-.22-.89-.44-1.34-.66-1.32.14-2.71.22-4.14.23.61.3,1.24.6,1.87.9.46.22.91.44,1.37.66-.55.28-1.11.55-1.66.82-.59.29-1.19.58-1.78.88-.59-.3-1.19-.59-1.78-.88-.55-.27-1.11-.54-1.66-.82.46-.22.91-.44,1.37-.66.63-.3,1.26-.6,1.87-.9-1.43-.01-2.82-.09-4.14-.23-.45.22-.9.44-1.34.66-.79-.41-1.57-.83-2.3-1.25a18.888,18.888,0,0,1-6.67-2.63,8.241,8.241,0,0,0,.74.84c-.268.153-.535.307-.795.469L9,12l-.3.048L8.64,12H8l.025.156-.016,0,3.95,24.615h0L12,37l.239,1.02.772.11a6.046,6.046,0,0,1,1.139-3.47c.99.56,2.02,1.08,3.06,1.58A6.676,6.676,0,0,0,15,41h2a5.317,5.317,0,0,1,2.15-3.84c.97.46,1.94.92,2.86,1.38C20.2,39.8,19,41.21,19,43h2c0-1.19,1.24-2.3,3-3.37,1.76,1.07,3,2.18,3,3.37h2c0-1.79-1.2-3.2-3.01-4.46.92-.46,1.89-.92,2.86-1.38A5.317,5.317,0,0,1,31,41h2a6.676,6.676,0,0,0-2.21-4.76c1.04-.5,2.07-1.02,3.06-1.58a6.1,6.1,0,0,1,1.074,2.759l-.219,1.364.988.158,4.3-26.783-.016,0ZM36.11,27.08c.192-.144.361-.307.546-.457l-.147.918C36.377,27.386,36.248,27.231,36.11,27.08Zm-24.619.461-.147-.918c.185.15.354.313.546.457C11.752,27.231,11.623,27.386,11.491,27.541Zm-.521-3.9a11.032,11.032,0,0,1,2.04-1.87c.94.68,1.95,1.32,3,1.93a27.8,27.8,0,0,0-2.65,2A19.366,19.366,0,0,1,10.97,23.64Zm7,1.16c1.24.67,2.52,1.32,3.81,1.96-1.24.63-2.43,1.27-3.54,1.94-1.1-.6-2.17-1.21-3.18-1.85A29.23,29.23,0,0,1,17.97,24.8ZM24,27.87c1.27.64,2.51,1.28,3.67,1.93-.45.23-.89.46-1.34.69-.79.41-1.57.81-2.33,1.21-.76-.4-1.54-.8-2.33-1.21-.45-.23-.89-.46-1.34-.69C21.49,29.15,22.73,28.51,24,27.87Zm2.22-1.11c1.29-.64,2.57-1.29,3.81-1.96a29.23,29.23,0,0,1,2.91,2.05c-1.01.64-2.08,1.25-3.18,1.85C28.65,28.03,27.46,27.39,26.22,26.76Zm5.77-3.06c1.05-.61,2.06-1.25,3-1.93a11.032,11.032,0,0,1,2.04,1.87,19.366,19.366,0,0,1-2.39,2.06A27.8,27.8,0,0,0,31.99,23.7Zm5.527-2.437c-.288-.263-.6-.52-.917-.773.439-.379.845-.773,1.23-1.178Zm-1.2-6.493c.58.3,1.14.63,1.67.97a12.783,12.783,0,0,1-3.09,3.55c-.93-.6-1.95-1.18-3.03-1.75A34.611,34.611,0,0,0,36.32,14.77Zm-9.66,5.41c1.04-.51,2.05-1.01,3.03-1.51,1.24.63,2.42,1.26,3.49,1.91-.97.66-2.01,1.3-3.11,1.91-1.23-.73-2.52-1.43-3.83-2.1ZM24,21.49c1.38.69,2.72,1.39,4.01,2.12-1.1.57-2.22,1.13-3.33,1.68-.23.12-.45.23-.68.34-.23-.11-.45-.22-.68-.34-1.11-.55-2.23-1.11-3.33-1.68C21.28,22.88,22.62,22.18,24,21.49Zm-2.66-1.31.42.21c-1.31.67-2.6,1.37-3.83,2.1-1.1-.61-2.14-1.25-3.11-1.91,1.07-.65,2.25-1.28,3.49-1.91C19.29,19.17,20.3,19.67,21.34,20.18Zm-9.66-5.41a34.611,34.611,0,0,0,4.45,2.77c-1.08.57-2.1,1.15-3.03,1.75a12.783,12.783,0,0,1-3.09-3.55C10.54,15.4,11.1,15.07,11.68,14.77Zm-.28,5.72c-.322.253-.629.51-.916.773l-.313-1.951A17.008,17.008,0,0,0,11.4,20.49Zm2.33,11.58a13.492,13.492,0,0,1-1.723-1.316l-.073-.453A10.84,10.84,0,0,1,13.54,28.23c.89.59,1.83,1.16,2.79,1.69A18.246,18.246,0,0,0,13.73,32.07Zm5.14,2.75c-1.16-.55-2.3-1.11-3.36-1.69a20.209,20.209,0,0,1,2.81-2.12c.81.43,1.63.85,2.44,1.26.38.2.76.39,1.13.59A28.651,28.651,0,0,0,18.87,34.82ZM24,37.33c-.96-.53-2-1.03-3.07-1.54.93-.62,1.97-1.22,3.07-1.82,1.1.6,2.14,1.2,3.07,1.82C26,36.3,24.96,36.8,24,37.33Zm5.13-2.51a28.651,28.651,0,0,0-3.02-1.96c.37-.2.75-.39,1.13-.59.81-.41,1.63-.83,2.44-1.26a20.209,20.209,0,0,1,2.81,2.12C31.43,33.71,30.29,34.27,29.13,34.82Zm5.14-2.75a18.246,18.246,0,0,0-2.6-2.15c.96-.53,1.9-1.1,2.79-1.69A10.84,10.84,0,0,1,36.066,30.3l-.072.453A13.576,13.576,0,0,1,34.27,32.07Z"/><path fill="url(#bMkc~~cRYJ57WwHeeXOtEe)" d="M24,41c-6.11,0-11.28-1.9-12.06-4.36l.37,2.33C12.73,41.64,17.57,44,24,44s11.27-2.36,11.69-5.03l.37-2.33C35.28,39.1,30.11,41,24,41Z"/><path fill="url(#bMkc~~cRYJ57WwHeeXOtEf)" d="M39.975,12.156,40,12h-.64l-.057.048L39,12l-.3,1.859c-.26-.162-.527-.316-.8-.469a8.241,8.241,0,0,0,.74-.84,18.888,18.888,0,0,1-6.67,2.63c-.73.42-1.51.84-2.3,1.25-.44-.22-.89-.44-1.34-.66-1.32.14-2.71.22-4.14.23.61.3,1.24.6,1.87.9.46.22.91.44,1.37.66-.55.28-1.11.55-1.66.82-.59.29-1.19.58-1.78.88-.59-.3-1.19-.59-1.78-.88-.55-.27-1.11-.54-1.66-.82.46-.22.91-.44,1.37-.66.63-.3,1.26-.6,1.87-.9-1.43-.01-2.82-.09-4.14-.23-.45.22-.9.44-1.34.66-.79-.41-1.57-.83-2.3-1.25a18.888,18.888,0,0,1-6.67-2.63,8.241,8.241,0,0,0,.74.84c-.268.153-.535.307-.795.469L9,12l-.3.048L8.64,12H8l.025.156-.016,0,3.95,24.615h0L12,37v1h1a5.671,5.671,0,0,1,1.15-3.34c.99.56,2.02,1.08,3.06,1.58A6.676,6.676,0,0,0,15,41h2a5.317,5.317,0,0,1,2.15-3.84c.97.46,1.94.92,2.86,1.38C20.2,39.8,19,41.21,19,43h2c0-1.19,1.24-2.3,3-3.37,1.76,1.07,3,2.18,3,3.37h2c0-1.79-1.2-3.2-3.01-4.46.92-.46,1.89-.92,2.86-1.38A5.317,5.317,0,0,1,31,41h2a6.676,6.676,0,0,0-2.21-4.76c1.04-.5,2.07-1.02,3.06-1.58a5.9,5.9,0,0,1,1.091,2.655l-.236,1.468.988.158L35.844,38H36v-.969l3.991-24.873ZM36.11,27.08c.192-.144.361-.307.546-.457l-.147.918C36.377,27.386,36.248,27.231,36.11,27.08Zm-24.619.461-.147-.918c.185.15.354.313.546.457C11.752,27.231,11.623,27.386,11.491,27.541Zm-.521-3.9a11.032,11.032,0,0,1,2.04-1.87c.94.68,1.95,1.32,3,1.93a27.8,27.8,0,0,0-2.65,2A19.366,19.366,0,0,1,10.97,23.64Zm7,1.16c1.24.67,2.52,1.32,3.81,1.96-1.24.63-2.43,1.27-3.54,1.94-1.1-.6-2.17-1.21-3.18-1.85A29.23,29.23,0,0,1,17.97,24.8ZM24,27.87c1.27.64,2.51,1.28,3.67,1.93-.45.23-.89.46-1.34.69-.79.41-1.57.81-2.33,1.21-.76-.4-1.54-.8-2.33-1.21-.45-.23-.89-.46-1.34-.69C21.49,29.15,22.73,28.51,24,27.87Zm2.22-1.11c1.29-.64,2.57-1.29,3.81-1.96a29.23,29.23,0,0,1,2.91,2.05c-1.01.64-2.08,1.25-3.18,1.85C28.65,28.03,27.46,27.39,26.22,26.76Zm5.77-3.06c1.05-.61,2.06-1.25,3-1.93a11.032,11.032,0,0,1,2.04,1.87,19.366,19.366,0,0,1-2.39,2.06A27.8,27.8,0,0,0,31.99,23.7Zm5.527-2.437c-.288-.263-.6-.52-.917-.773.439-.379.845-.773,1.23-1.178Zm-1.2-6.493c.58.3,1.14.63,1.67.97a12.783,12.783,0,0,1-3.09,3.55c-.93-.6-1.95-1.18-3.03-1.75A34.611,34.611,0,0,0,36.32,14.77Zm-9.66,5.41c1.04-.51,2.05-1.01,3.03-1.51,1.24.63,2.42,1.26,3.49,1.91-.97.66-2.01,1.3-3.11,1.91-1.23-.73-2.52-1.43-3.83-2.1ZM24,21.49c1.38.69,2.72,1.39,4.01,2.12-1.1.57-2.22,1.13-3.33,1.68-.23.12-.45.23-.68.34-.23-.11-.45-.22-.68-.34-1.11-.55-2.23-1.11-3.33-1.68C21.28,22.88,22.62,22.18,24,21.49Zm-2.66-1.31.42.21c-1.31.67-2.6,1.37-3.83,2.1-1.1-.61-2.14-1.25-3.11-1.91,1.07-.65,2.25-1.28,3.49-1.91C19.29,19.17,20.3,19.67,21.34,20.18Zm-9.66-5.41a34.611,34.611,0,0,0,4.45,2.77c-1.08.57-2.1,1.15-3.03,1.75a12.783,12.783,0,0,1-3.09-3.55C10.54,15.4,11.1,15.07,11.68,14.77Zm-.28,5.72c-.322.253-.629.51-.916.773l-.313-1.951A17.008,17.008,0,0,0,11.4,20.49Zm2.33,11.58a13.492,13.492,0,0,1-1.723-1.316l-.073-.453A10.84,10.84,0,0,1,13.54,28.23c.89.59,1.83,1.16,2.79,1.69A18.246,18.246,0,0,0,13.73,32.07Zm5.14,2.75c-1.16-.55-2.3-1.11-3.36-1.69a20.209,20.209,0,0,1,2.81-2.12c.81.43,1.63.85,2.44,1.26.38.2.76.39,1.13.59A28.651,28.651,0,0,0,18.87,34.82ZM24,37.33c-.96-.53-2-1.03-3.07-1.54.93-.62,1.97-1.22,3.07-1.82,1.1.6,2.14,1.2,3.07,1.82C26,36.3,24.96,36.8,24,37.33Zm5.13-2.51a28.651,28.651,0,0,0-3.02-1.96c.37-.2.75-.39,1.13-.59.81-.41,1.63-.83,2.44-1.26a20.209,20.209,0,0,1,2.81,2.12C31.43,33.71,30.29,34.27,29.13,34.82Zm5.14-2.75a18.246,18.246,0,0,0-2.6-2.15c.96-.53,1.9-1.1,2.79-1.69A10.84,10.84,0,0,1,36.066,30.3l-.072.453A13.576,13.576,0,0,1,34.27,32.07Z"/><path fill="url(#bMkc~~cRYJ57WwHeeXOtEg)" d="M41,9v3c0,2.76-7.612,5-17,5S7,14.76,7,12V9c0,2.76,7.612,4.7,17,4.7S41,11.76,41,9Z"/><path fill="url(#bMkc~~cRYJ57WwHeeXOtEh)" d="M24,41c-6.11,0-11.28-1.9-12.06-4.36l.37,2.33C12.73,41.64,17.57,44,24,44s11.27-2.36,11.69-5.03l.37-2.33C35.28,39.1,30.11,41,24,41Z"/><path fill="#bedfe3" d="M24,14C15.759,14,7,12.248,7,9s8.759-5,17-5S41,5.752,41,9,32.241,14,24,14Zm0-9C14.571,5,8,7.108,8,9s6.571,4,16,4,16-2.108,16-4S33.429,5,24,5Z"/></g></svg>