<svg xmlns="http://www.w3.org/2000/svg" xmlns:xlink="http://www.w3.org/1999/xlink" viewBox="0 0 48 48" width="48px" height="48px"><defs><linearGradient id="drSOqPEfzrBrSVBjcS3PEa" x1="12.27" x2="12.27" y1="-92.016" y2="-69" gradientTransform="matrix(.471 0 0 .355 30.716 40.271)" gradientUnits="userSpaceOnUse"><stop offset=".008" stop-color="#c4ab5e"/><stop offset=".188" stop-color="#ebd286"/><stop offset=".794" stop-color="#4f3318"/><stop offset=".872" stop-color="#624c24"/><stop offset=".943" stop-color="#6f5c2c"/><stop offset="1" stop-color="#73612f"/></linearGradient><linearGradient id="drSOqPEfzrBrSVBjcS3PEc" x1="23.432" x2="26.838" y1="86.671" y2="86.671" gradientTransform="rotate(45 78.015 45.06) scale(1 1.102)" gradientUnits="userSpaceOnUse"><stop offset=".188" stop-color="#767676"/><stop offset=".935" stop-color="#080807"/></linearGradient><linearGradient id="drSOqPEfzrBrSVBjcS3PEe" x1="6.132" x2="12.465" y1="36.347" y2="42.68" gradientUnits="userSpaceOnUse"><stop offset=".188" stop-color="#ebd9b3"/><stop offset=".935" stop-color="#7d6229"/></linearGradient><linearGradient id="drSOqPEfzrBrSVBjcS3PEf" x1="36.739" x2="43.072" y1="5.739" y2="12.072" gradientUnits="userSpaceOnUse"><stop offset=".188" stop-color="#eb6b63"/><stop offset=".935" stop-color="#631414"/></linearGradient><linearGradient id="drSOqPEfzrBrSVBjcS3PEg" x1="42.7" x2="36.238" y1="4.653" y2="12.354" gradientUnits="userSpaceOnUse"><stop offset=".667" stop-color="#7d3935" stop-opacity="0"/><stop offset=".871" stop-color="#6b201f" stop-opacity=".68"/><stop offset=".963" stop-color="#631414"/></linearGradient><linearGradient id="drSOqPEfzrBrSVBjcS3PEh" x1="31.873" x2="33.977" y1="16.127" y2="14.023" gradientTransform="rotate(45 32.92 15.08)" gradientUnits="userSpaceOnUse"><stop offset=".664" stop-color="#826827" stop-opacity="0"/><stop offset="1" stop-color="#543d00"/></linearGradient><linearGradient id="drSOqPEfzrBrSVBjcS3PEd" x1="18.74" x2="23.504" y1="24.52" y2="29.284" gradientUnits="userSpaceOnUse"><stop offset=".25" stop-color="#f5c64c"/><stop offset=".3" stop-color="#daa728"/><stop offset=".62" stop-color="#d1a127"/><stop offset=".67" stop-color="#d4a326"/><stop offset=".789" stop-color="#8a6500"/></linearGradient><linearGradient id="drSOqPEfzrBrSVBjcS3PEb" x1="10.708" x2="13.996" y1="-81.086" y2="-81.086" gradientTransform="matrix(.471 0 0 .355 30.716 40.271)" gradientUnits="userSpaceOnUse"><stop offset=".174" stop-color="#382b0c"/><stop offset=".348" stop-color="#594922" stop-opacity=".818"/><stop offset=".644" stop-color="#b09b5e" stop-opacity=".329"/><stop offset=".812" stop-color="#ebd286" stop-opacity="0"/></linearGradient><linearGradient id="drSOqPEfzrBrSVBjcS3PEi" x1="9.27" x2="9.27" y1="-92.016" y2="-69" gradientTransform="matrix(.471 0 0 .355 31.13 41.271)" xlink:href="#drSOqPEfzrBrSVBjcS3PEa"/><linearGradient id="drSOqPEfzrBrSVBjcS3PEj" x1="7.708" x2="10.996" y1="-81.086" y2="-81.086" gradientTransform="matrix(.471 0 0 .355 31.13 41.271)" xlink:href="#drSOqPEfzrBrSVBjcS3PEb"/><linearGradient id="drSOqPEfzrBrSVBjcS3PEk" x1="6.27" x2="6.27" y1="-92.016" y2="-69" gradientTransform="matrix(.471 0 0 .355 31.544 42.271)" xlink:href="#drSOqPEfzrBrSVBjcS3PEa"/><linearGradient id="drSOqPEfzrBrSVBjcS3PEl" x1="4.708" x2="7.996" y1="-81.086" y2="-81.086" gradientTransform="matrix(.471 0 0 .355 31.544 42.271)" xlink:href="#drSOqPEfzrBrSVBjcS3PEb"/></defs><g data-name="pencil"><path fill="url(#drSOqPEfzrBrSVBjcS3PEc)" d="M3.3,44.7h0a1,1,0,0,1,0-1.414l2.038-2.777,2.153,2.153L4.714,44.7A1,1,0,0,1,3.3,44.7Z"/><path fill="url(#drSOqPEfzrBrSVBjcS3PEd)" d="M33.17,9.17l5.66,5.66L14.27,39.39s-7.58,2.87-8.05,2.39,2.39-8.05,2.39-8.05Z"/><path fill="url(#drSOqPEfzrBrSVBjcS3PEe)" d="M14.41,39.25l-.14.14L7.01,43.01a2.626,2.626,0,0,0-.79-1.23,2.626,2.626,0,0,0-1.23-.79l3.62-7.26.14-.14a.988.988,0,0,1,.7.3c.59.58.02,1.15.61,1.73s1.14.02,1.73.6.01,1.15.6,1.73,1.15.02,1.73.6A.974.974,0,0,1,14.41,39.25Z"/><path fill="url(#drSOqPEfzrBrSVBjcS3PEf)" d="M44.42,9.24l-5.59,5.59L33.17,9.17l5.59-5.59a1.992,1.992,0,0,1,2.82,0l2.84,2.84A1.992,1.992,0,0,1,44.42,9.24Z"/><path fill="url(#drSOqPEfzrBrSVBjcS3PEg)" d="M44.42,9.24l-4.59,4.59L34.17,8.17l4.59-4.59a1.992,1.992,0,0,1,2.82,0l2.84,2.84A1.992,1.992,0,0,1,44.42,9.24Z"/><rect width="3.536" height="8.004" x="31.152" y="11.078" fill="url(#drSOqPEfzrBrSVBjcS3PEh)" opacity=".7" transform="rotate(-45 32.92 15.08)"/><rect width="1.65" height="8.693" x="35.675" y="7.153" fill="url(#drSOqPEfzrBrSVBjcS3PEa)" rx=".707" transform="rotate(-45 36.5 11.5)"/><rect width="1.65" height="8.693" x="35.675" y="7.153" fill="url(#drSOqPEfzrBrSVBjcS3PEb)" opacity=".5" rx=".707" transform="rotate(-45 36.5 11.5)"/><rect width="1.65" height="8.693" x="34.675" y="8.153" fill="url(#drSOqPEfzrBrSVBjcS3PEi)" rx=".707" transform="rotate(-45 35.5 12.5)"/><rect width="1.65" height="8.693" x="34.675" y="8.153" fill="url(#drSOqPEfzrBrSVBjcS3PEj)" opacity=".5" rx=".707" transform="rotate(-45 35.5 12.5)"/><rect width="1.65" height="8.693" x="33.675" y="9.153" fill="url(#drSOqPEfzrBrSVBjcS3PEk)" rx=".707" transform="rotate(-45 34.5 13.5)"/><rect width="1.65" height="8.693" x="33.675" y="9.153" fill="url(#drSOqPEfzrBrSVBjcS3PEl)" opacity=".5" rx=".707" transform="rotate(-45 34.5 13.5)"/></g></svg>